<svg width="13" height="18" viewBox="0 0 13 18" fill="none" xmlns="http://www.w3.org/2000/svg">
<path d="M6.35843 13.9212C6.30254 13.8654 6.23623 13.8212 6.16327 13.7911C6.0903 13.761 6.01212 13.7455 5.93319 13.7456C5.85425 13.7457 5.77611 13.7614 5.70322 13.7917C5.63033 13.822 5.56412 13.8663 5.50837 13.9222C5.45262 13.9781 5.40843 14.0444 5.37831 14.1174C5.34819 14.1903 5.33274 14.2685 5.33284 14.3474C5.33293 14.4264 5.34857 14.5045 5.37887 14.5774C5.40916 14.6503 5.45352 14.7165 5.5094 14.7723L8.57895 17.8253C8.63469 17.8811 8.70087 17.9253 8.77371 17.9555C8.84654 17.9857 8.92462 18.0012 9.00346 18.0012C9.08231 18.0012 9.16038 17.9857 9.23322 17.9555C9.30606 17.9253 9.37224 17.8811 9.42798 17.8253L12.4803 14.7723C12.5839 14.6585 12.6399 14.5092 12.6366 14.3554C12.6333 14.2015 12.571 14.0548 12.4627 13.9456C12.3543 13.8363 12.2081 13.7728 12.0543 13.7683C11.9004 13.7638 11.7508 13.8185 11.6361 13.9212L9.60466 15.9526L9.60466 6.32807C9.60466 6.1689 9.54142 6.01625 9.42887 5.9037C9.31632 5.79114 9.16367 5.72791 9.0045 5.72791C8.84532 5.72791 8.69267 5.79114 8.58012 5.9037C8.46757 6.01625 8.40434 6.1689 8.40434 6.32807L8.40434 15.9526L6.35843 13.9212Z" fill="black"/>
<path d="M0.175022 4.07969C0.230757 4.13546 0.296936 4.1797 0.369775 4.20989C0.442615 4.24007 0.520688 4.25561 0.599534 4.25561C0.67838 4.25561 0.756454 4.24007 0.829294 4.20989C0.902134 4.1797 0.968311 4.13546 1.02405 4.07969L3.05552 2.04822L3.05552 11.6728C3.05552 11.7516 3.07104 11.8296 3.1012 11.9025C3.13136 11.9753 3.17557 12.0414 3.2313 12.0972C3.28703 12.1529 3.35319 12.1971 3.42601 12.2273C3.49882 12.2574 3.57686 12.2729 3.65568 12.2729C3.73449 12.2729 3.81253 12.2574 3.88535 12.2273C3.95816 12.1971 4.02433 12.1529 4.08006 12.0972C4.13579 12.0414 4.17999 11.9753 4.21015 11.9025C4.24031 11.8296 4.25584 11.7516 4.25584 11.6728L4.25584 2.04822L6.2935 4.07969C6.34924 4.13544 6.41543 4.17966 6.48826 4.20983C6.5611 4.24 6.63917 4.25553 6.71801 4.25553C6.79685 4.25553 6.87492 4.24 6.94775 4.20983C7.02059 4.17966 7.08677 4.13544 7.14252 4.07969C7.19827 4.02394 7.24249 3.95776 7.27266 3.88492C7.30283 3.81209 7.31836 3.73402 7.31836 3.65518C7.31836 3.57634 7.30283 3.49827 7.27266 3.42544C7.24249 3.3526 7.19827 3.28642 7.14252 3.23067L4.08466 0.176243C3.97221 0.0644484 3.82009 0.00169563 3.66152 0.00169563C3.50296 0.00169563 3.35083 0.0644484 3.23838 0.176243L0.175022 3.23067C0.119251 3.2864 0.0750108 3.35258 0.044826 3.42542C0.0146413 3.49826 -0.000895977 3.57633 -0.000895977 3.65518C-0.000895977 3.73403 0.0146413 3.8121 0.044826 3.88494C0.0750108 3.95778 0.119251 4.02396 0.175022 4.07969Z" fill="black"/>
</svg>
